<svg width="27" height="27" viewBox="0 0 27 27" fill="none" xmlns="http://www.w3.org/2000/svg">
<path d="M15.4286 19.2858C15.4286 18.2207 14.565 17.3572 13.5 17.3572C12.4349 17.3572 11.5714 18.2207 11.5714 19.2858C11.5714 20.3509 12.4349 21.2144 13.5 21.2144C14.565 21.2144 15.4286 20.3509 15.4286 19.2858Z" fill="white"/>
<path d="M15.4286 13.5001C15.4286 12.435 14.565 11.5715 13.5 11.5715C12.4349 11.5715 11.5714 12.435 11.5714 13.5001C11.5714 14.5652 12.4349 15.4286 13.5 15.4286C14.565 15.4286 15.4286 14.5652 15.4286 13.5001Z" fill="white"/>
<path d="M13.5 5.78578C14.565 5.78578 15.4286 6.64925 15.4286 7.71436C15.4286 8.77946 14.565 9.64293 13.5 9.64293C12.4349 9.64293 11.5714 8.77946 11.5714 7.71436C11.5714 6.64925 12.4349 5.78578 13.5 5.78578Z" fill="white"/>
</svg>
